<?xml version="1.0" encoding="utf-8"?>
<!-- Generator: Adobe Illustrator 25.2.3, SVG Export Plug-In . SVG Version: 6.00 Build 0)  -->
<svg version="1.1" id="Layer_1" xmlns="http://www.w3.org/2000/svg" xmlns:xlink="http://www.w3.org/1999/xlink" x="0px" y="0px"
	 viewBox="0 0 1893 432" style="enable-background:new 0 0 1893 432;" xml:space="preserve">
<style type="text/css">
	.st0{fill:none;}
	.st1{fill:none;stroke:#00B4D8;stroke-width:7;stroke-miterlimit:10;}
	.st2{fill:none;stroke:#023E8A;stroke-width:7;stroke-miterlimit:10;}
	.st3{fill:none;stroke:#E4572E;stroke-width:7;stroke-miterlimit:10;}
	.st4{fill:#023E8A;}
	.st5{fill:#00B4D8;}
</style>
<rect x="-1.5" y="-4" class="st0" width="1893" height="432"/>
<g>
	<line class="st1" x1="3389.59" y1="701.37" x2="3460.83" y2="701.37"/>
	<line class="st1" x1="3425.21" y1="666.54" x2="3425.21" y2="742.53"/>
	<circle class="st1" cx="3425.21" cy="627.35" r="41.27"/>
	<circle class="st2" cx="3525.99" cy="614.31" r="25.51"/>
	<circle class="st2" cx="3476.16" cy="547.99" r="15.77"/>
	<circle class="st2" cx="3412.25" cy="537.37" r="9.74"/>
	<circle class="st2" cx="3355.26" cy="563.45" r="6.02"/>
	<circle class="st1" cx="3501.2" cy="701.37" r="41.27"/>
	<circle class="st1" cx="3349.22" cy="701.37" r="41.27"/>
	<circle class="st1" cx="3425.21" cy="779.34" r="41.27"/>
</g>
<g>
	<line class="st1" x1="664.87" y1="205.85" x2="746.56" y2="205.85"/>
	<line class="st1" x1="705.71" y1="165.91" x2="705.71" y2="249.5"/>
	<circle class="st1" cx="705.71" cy="120.98" r="47.33"/>
	<circle class="st3" cx="821.27" cy="106.03" r="29.25"/>
	<circle class="st3" cx="764.14" cy="29.97" r="18.08"/>
	<circle class="st3" cx="690.86" cy="17.79" r="11.17"/>
	<circle class="st3" cx="625.5" cy="47.7" r="6.91"/>
	<circle class="st1" cx="792.85" cy="205.85" r="47.33"/>
	<circle class="st1" cx="618.57" cy="205.85" r="47.33"/>
	<circle class="st1" cx="705.71" cy="295.25" r="47.33"/>
</g>
<path class="st4" d="M2908.95,592.69c-5.33,6.22-11.49,13.78-18.49,22.66c-7,8.89-14.49,18.61-22.49,29.16
	c-7.99,10.56-16.15,21.78-24.48,33.66c-8.33,11.89-16.54,23.89-24.65,36c-8.1,12.11-15.76,24.06-22.98,35.83
	c-7.22,11.78-13.71,22.89-19.48,33.33h135.9V803h-160.65v-17c4.89-9.55,10.72-20.05,17.5-31.5c6.78-11.44,14.05-23.22,21.83-35.33
	c7.78-12.11,15.88-24.27,24.33-36.5c8.44-12.22,16.77-23.94,25-35.16c8.22-11.22,16.05-21.61,23.5-31.16
	c7.44-9.55,14.27-17.77,20.5-24.66h-126.32v-19.67h150.98V592.69z"/>
<path class="st4" d="M2955.61,572.02h22.66V803h-22.66V572.02z"/>
<path class="st4" d="M3245.58,687.35c0,19.78-2.89,37.22-8.67,52.33c-5.78,15.11-13.61,27.72-23.5,37.83
	c-9.89,10.11-21.39,17.72-34.5,22.83c-13.11,5.11-27,7.67-41.66,7.67c-14.67,0-28.55-2.56-41.66-7.67
	c-13.11-5.11-24.61-12.72-34.5-22.83c-9.89-10.11-17.72-22.72-23.5-37.83c-5.78-15.11-8.67-32.55-8.67-52.33
	c0-19.77,2.88-37.16,8.67-52.16c5.78-15,13.61-27.55,23.5-37.66c9.88-10.11,21.38-17.72,34.5-22.83c13.11-5.11,27-7.67,41.66-7.67
	c14.67,0,28.55,2.56,41.66,7.67c13.11,5.11,24.61,12.72,34.5,22.83c9.88,10.11,17.72,22.66,23.5,37.66
	C3242.69,650.18,3245.58,667.57,3245.58,687.35z M3221.58,687.35c0-15.55-2-29.5-6-41.83c-4-12.33-9.67-22.83-17-31.5
	s-16.17-15.27-26.5-19.83c-10.33-4.55-21.95-6.83-34.83-6.83c-12.89,0-24.5,2.28-34.83,6.83c-10.33,4.56-19.16,11.17-26.5,19.83
	s-13,19.16-17,31.5c-4,12.33-6,26.28-6,41.83c0,15.56,2,29.5,6,41.83c4,12.33,9.67,22.83,17,31.5c7.33,8.67,16.16,15.33,26.5,20
	c10.33,4.67,21.94,7,34.83,7c12.88,0,24.5-2.33,34.83-7c10.33-4.67,19.17-11.33,26.5-20c7.33-8.67,13-19.17,17-31.5
	C3219.58,716.84,3221.58,702.9,3221.58,687.35z"/>
<path class="st4" d="M3607.81,803V572.02h133.32v19.67h-110.66v80.32h98.66v19.33h-98.66v91.99h119.32V803H3607.81z"/>
<path class="st4" d="M3950.11,803c-4.29-7.73-9.67-16.85-16.14-27.35c-6.47-10.5-13.66-21.65-21.58-33.44
	c-7.92-11.79-16.17-23.99-24.78-36.58c-8.6-12.59-17.18-24.84-25.71-36.75c-8.53-11.91-16.88-23.06-25.04-33.46
	c-8.17-10.41-15.41-19.4-21.74-26.97V803h-22.33V572.02h18c11.34,12.66,23.5,27.28,36.45,43.86c12.96,16.59,25.66,33.49,38.11,50.7
	c12.45,17.22,24.08,34.04,34.87,50.47c10.79,16.44,19.64,30.75,26.55,42.95V572.02h22.33V803H3950.11z"/>
<path class="st4" d="M4175.75,572.02v19.67h-73.99V803h-22.66V591.69h-73.99v-19.67H4175.75z"/>
<path class="st4" d="M4211.74,572.02h22.66V803h-22.66V572.02z"/>
<path class="st4" d="M4441.05,572.02v19.67h-73.99V803h-22.66V591.69h-73.99v-19.67H4441.05z"/>
<path class="st4" d="M4540.7,803v-94.99c-15.84-24.22-30.4-47.6-43.68-70.16c-13.28-22.55-25.6-44.5-36.98-65.83h26.33
	c9.35,19.56,19.66,39.39,30.91,59.49c11.25,20.11,23,39.28,35.25,57.49c11.81-18.22,23.39-37.38,34.75-57.49
	c11.36-20.11,21.83-39.94,31.41-59.49h24.66c-11.78,21.11-24.22,43.05-37.33,65.83c-13.11,22.78-27.33,45.94-42.66,69.49V803H4540.7
	z"/>
<path class="st5" d="M189.86,101.71c-6.24,7.28-13.44,16.12-21.62,26.51c-8.19,10.4-16.95,21.77-26.3,34.11
	c-9.35,12.35-18.9,25.47-28.64,39.38c-9.74,13.91-19.35,27.94-28.83,42.1c-9.48,14.17-18.44,28.14-26.88,41.91
	c-8.44,13.78-16.04,26.77-22.79,38.99h158.96v23H5.85v-19.88c5.71-11.17,12.54-23.45,20.47-36.84
	c7.93-13.38,16.43-27.16,25.54-41.32c9.09-14.16,18.58-28.39,28.46-42.69c9.87-14.29,19.62-28,29.24-41.13
	c9.61-13.12,18.77-25.27,27.49-36.45c8.7-11.17,16.7-20.79,23.98-28.85H13.25v-23h176.61V101.71z"/>
<path class="st5" d="M268.22,347.71h-25.34V146.15h25.34V347.71z"/>
<path class="st5" d="M507.2,247.12c0,15.86-2.28,30.28-6.82,43.27c-4.55,13-10.92,24.04-19.1,33.14
	c-8.19,9.1-17.87,16.18-29.04,21.25c-11.18,5.07-23.53,7.6-37.04,7.6c-13.52,0-25.86-2.53-37.04-7.6
	c-11.18-5.07-20.86-12.15-29.04-21.25c-8.19-9.09-14.56-20.14-19.1-33.14c-4.55-12.99-6.82-27.42-6.82-43.27
	c0-15.85,2.27-30.27,6.82-43.27c4.54-12.99,10.92-24.1,19.1-33.33c8.19-9.22,17.87-16.37,29.04-21.44
	c11.17-5.07,23.52-7.6,37.04-7.6c13.51,0,25.86,2.53,37.04,7.6c11.17,5.07,20.86,12.22,29.04,21.44
	c8.19,9.23,14.55,20.34,19.1,33.33C504.92,216.85,507.2,231.27,507.2,247.12z M480.3,247.12c0-25.21-5.85-45.28-17.54-60.23
	c-11.7-14.94-27.55-22.42-47.56-22.42c-20.02,0-35.87,7.47-47.56,22.42c-11.7,14.95-17.54,35.03-17.54,60.23
	c0,25.21,5.85,45.22,17.54,60.04c11.7,14.81,27.55,22.22,47.56,22.22c20.01,0,35.87-7.41,47.56-22.22
	C474.45,292.35,480.3,272.34,480.3,247.12z"/>
<path class="st5" d="M910.04,347.71V77.53h155.94v23H936.55v93.96h115.4v22.61h-115.4v107.6h139.57v23H910.04z"/>
<path class="st5" d="M1124.85,153.17c7.53-2.08,17.67-4.42,30.41-7.02c12.73-2.6,28.33-3.9,46.78-3.9c15.33,0,28.13,2.21,38.4,6.63
	c10.26,4.42,18.45,10.72,24.56,18.91c6.1,8.19,10.46,18,13.06,29.43c2.6,11.44,3.9,24.04,3.9,37.82v112.67h-25.34V243.22
	c0-14.29-0.98-26.38-2.92-36.26c-1.95-9.87-5.2-17.93-9.75-24.17c-4.55-6.24-10.53-10.72-17.93-13.45
	c-7.41-2.73-16.7-4.09-27.87-4.09c-11.96,0-22.29,0.65-30.99,1.95c-8.71,1.3-14.36,2.47-16.96,3.51v176.99h-25.34V153.17z"/>
<path class="st5" d="M1370.46,146.15h80.31v21.44h-80.31V274.8c0,11.44,0.97,20.73,2.92,27.88c1.95,7.15,4.74,12.67,8.38,16.57
	c3.64,3.9,8.05,6.5,13.26,7.8c5.2,1.3,10.92,1.95,17.15,1.95c10.65,0,19.23-1.23,25.73-3.7c6.49-2.47,11.56-4.74,15.2-6.82
	l6.24,21.05c-3.64,2.34-10.01,5.01-19.1,7.99c-9.1,2.99-18.97,4.48-29.63,4.48c-12.48,0-22.94-1.63-31.38-4.87
	c-8.45-3.25-15.2-8.19-20.27-14.81c-5.07-6.63-8.64-14.88-10.72-24.76c-2.08-9.88-3.12-21.57-3.12-35.09V86.89l25.34-4.68V146.15z"
	/>
<path class="st5" d="M1522.89,347.71h-25.34V146.15h25.34V347.71z"/>
<path class="st5" d="M1613.72,146.15h80.31v21.44h-80.31V274.8c0,11.44,0.97,20.73,2.92,27.88c1.95,7.15,4.74,12.67,8.38,16.57
	c3.64,3.9,8.05,6.5,13.26,7.8c5.2,1.3,10.92,1.95,17.15,1.95c10.65,0,19.23-1.23,25.73-3.7c6.49-2.47,11.56-4.74,15.2-6.82
	l6.24,21.05c-3.64,2.34-10.01,5.01-19.1,7.99c-9.1,2.99-18.97,4.48-29.63,4.48c-12.48,0-22.94-1.63-31.38-4.87
	c-8.45-3.25-15.2-8.19-20.27-14.81c-5.07-6.63-8.64-14.88-10.72-24.76c-2.08-9.88-3.12-21.57-3.12-35.09V86.89l25.34-4.68V146.15z"
	/>
<path class="st5" d="M1795.78,351.99c-8.47-15.9-16.67-32.42-24.63-49.56s-15.39-34.48-22.31-52.02
	c-6.91-17.53-13.24-35.07-18.98-52.6c-5.74-17.53-10.67-34.76-14.78-51.67h26.9c2.85,12.48,6.49,25.93,10.9,40.36
	c4.41,14.42,9.4,29.31,14.98,44.64c5.58,15.34,11.74,31.07,18.49,47.19c6.75,16.12,14.11,31.97,22.09,47.54
	c5.79-16.06,10.92-31.22,15.38-45.51c4.46-14.28,8.6-28.5,12.41-42.65c3.81-14.16,7.49-28.64,11.03-43.44
	c3.55-14.8,7.16-30.84,10.87-48.12h25.35c-8.47,37.72-17.98,74.4-28.53,110.04c-10.55,35.64-22.08,68.22-34.58,97.76
	c-4.94,11.69-10.02,21.76-15.24,30.21c-5.22,8.44-11.03,15.4-17.42,20.86c-6.4,5.46-13.83,9.48-22.31,12.08
	c-8.49,2.6-18.47,3.9-29.95,3.9c-6.53,0-12.47-0.78-17.82-2.34c-5.35-1.56-8.67-2.73-9.98-3.51l5.07-21.05
	c1.04,0.78,3.97,1.88,8.8,3.31c4.82,1.43,9.83,2.14,15.05,2.14c7.29,0,13.87-0.78,19.74-2.34c5.86-1.56,11.13-4.23,15.83-7.99
	c4.69-3.77,8.92-8.64,12.7-14.62C1788.62,368.62,1792.27,361.09,1795.78,351.99z"/>
<circle class="st3" cx="254.78" cy="87.05" r="18.08"/>
<circle class="st3" cx="1509.79" cy="87.05" r="18.08"/>
</svg>
